<svg id="Layer_3" enable-background="new 0 0 64 64" height="512" viewBox="0 0 64 64" width="512" xmlns="http://www.w3.org/2000/svg"><g><path d="m45.543 20.954c-3.288 3.221-7.696 5.044-12.353 5.044h-2.38c-4.658 0-9.067-1.823-12.354-5.044-.951 3.266-1.456 6.635-1.456 10.045 0 .566.038 1.13.1 1.687l.191.191c1.451 1.449 3.97 1.446 5.415 0l.585-.585c.188-.188.441-.293.707-.293 0-.001 0-.001 0-.001.266 0 .521.105.708.293l4.001 4.001c.188.187.293.442.293.708-.001.265-.105.52-.294.707l-2.232 2.231c-.951.951-1.476 2.216-1.476 3.561 0 .273.036.538.078.802 2.127 1.108 4.508 1.699 6.923 1.699 8.271 0 14.999-6.729 14.999-15 0-3.41-.505-6.78-1.455-10.046z"/><path d="m16.999 16.864v-.865c0-1.104.896-2 2-2h25.999c1.104 0 2 .896 2 2l.001.866 2.78-2.317c.776-.647 1.221-1.597 1.221-2.608 0-1.38-.825-2.611-2.102-3.138l-11.505-4.737c-3.442-1.416-7.347-1.414-10.787 0l-11.506 4.738c-1.276.526-2.101 1.758-2.101 3.138 0 1.011.444 1.961 1.221 2.607zm15.001-11.865c2.205 0 3.999 1.794 3.999 4 0 2.205-1.794 3.999-3.999 3.999-2.206 0-4-1.794-4-3.999 0-2.206 1.794-4 4-4z"/><path d="m32.998 52.693v3.744l9.865-4.554-2.964-1.778z"/><path d="m48 52.999h5.999v1.999h-5.999z"/><path d="m48.662 26c.176 1.324.281 2.658.316 3.999h1.022c1.103 0 1.999-.896 1.999-1.999 0-1.104-.896-2-1.999-2z"/><path d="m5.999 50.643c0 1.088.593 2.086 1.548 2.606l8.452 4.611 8.452-4.61c.954-.521 1.547-1.52 1.547-2.607 0-.793-.309-1.538-.869-2.099-1.398-1.399-2.131-3.166-2.131-5.044 0-.512.059-1.014.165-1.502h-14.329c.106.488.165.99.165 1.501 0 1.88-.732 3.646-2.061 4.976-.623.622-.939 1.386-.939 2.168z"/><path d="m32 10.998c1.103 0 1.999-.896 1.999-1.999 0-1.104-.896-2-1.999-2-1.104 0-2 .896-2 2 0 1.103.896 1.999 2 1.999z"/><path d="m8.062 39.999h15.874c.306-.532.678-1.03 1.124-1.476l1.525-1.524-2.588-2.588c-1.086 1.027-2.499 1.589-3.997 1.589-1.501 0-2.915-.563-4.001-1.59-1.086 1.027-2.5 1.59-3.999 1.59-1.5 0-2.913-.563-3.999-1.589l-2.588 2.588 1.524 1.524c.446.446.818.944 1.125 1.476z"/><path d="m18.999 15.999h25.999v2h-25.999z"/><path d="m38.999 46.474c-2.137.971-4.502 1.526-6.999 1.526-1.881 0-3.744-.317-5.509-.92.662.669 1.091 1.448 1.316 2.28l4.193 1.572 6.999-2.625z"/><path d="m26.379 54.304 4.62 2.133v-3.745l-3.091-1.159c-.195 1.069-.731 2.041-1.529 2.771z"/><path d="m16.478 59.877c-.149.082-.314.122-.479.122-.164 0-.329-.04-.479-.122l-8.931-4.872c-.541-.295-1.005-.687-1.392-1.14-1.354.921-2.198 2.466-2.197 4.133v3.001h27.999v-2.36l-6.636-3.063z"/><path d="m33.189 23.998c3.895 0 7.59-1.441 10.444-3.999h-23.268c2.854 2.558 6.55 3.999 10.445 3.999z"/><path d="m13.998 30h1.022c.035-1.341.14-2.676.316-4.001h-1.338c-1.103 0-1.999.896-1.999 2 0 1.103.897 2.001 1.999 2.001z"/><path d="m56 53-.001 1.998c0 1.104-.896 2-2 2h-5.999c-1.104 0-2-.896-2-2v-2h-.78l-12.222 5.642v2.359h28.002v-3c-.001-2.757-2.244-4.999-5-4.999z"/></g></svg>