<?xml version="1.0"?>
<svg xmlns="http://www.w3.org/2000/svg" viewBox="0 0 512 512" width="512" height="512"><g id="_18-transporation" data-name="18-transporation"><g id="linear_color" data-name="linear color"><path d="M416,404H332V304a12,12,0,0,0-12-12H192a12,12,0,0,0-12,12V404H96a12,12,0,0,0-12,12v80a12,12,0,0,0,12,12H416a12,12,0,0,0,12-12V416A12,12,0,0,0,416,404ZM108,428h72v56H108Zm144,56V460h8v24Zm32,0V448a12,12,0,0,0-12-12H240a12,12,0,0,0-12,12v36H204V316H308V484Zm120,0H332V428h72Z"/><path d="M352,476a12,12,0,0,0,12-12V448a12,12,0,0,0-24,0v16A12,12,0,0,0,352,476Z"/><path d="M384,476a12,12,0,0,0,12-12V448a12,12,0,0,0-24,0v16A12,12,0,0,0,384,476Z"/><path d="M160,436a12,12,0,0,0-12,12v16a12,12,0,0,0,24,0V448A12,12,0,0,0,160,436Z"/><path d="M128,436a12,12,0,0,0-12,12v16a12,12,0,0,0,24,0V448A12,12,0,0,0,128,436Z"/><path d="M256,324a12,12,0,0,0-12,12v16a12,12,0,0,0,24,0V336A12,12,0,0,0,256,324Z"/><path d="M256,388a12,12,0,0,0-12,12v16a12,12,0,0,0,24,0V400A12,12,0,0,0,256,388Z"/><path d="M288,324a12,12,0,0,0-12,12v16a12,12,0,0,0,24,0V336A12,12,0,0,0,288,324Z"/><path d="M288,388a12,12,0,0,0-12,12v16a12,12,0,0,0,24,0V400A12,12,0,0,0,288,388Z"/><path d="M224,324a12,12,0,0,0-12,12v16a12,12,0,0,0,24,0V336A12,12,0,0,0,224,324Z"/><path d="M224,388a12,12,0,0,0-12,12v16a12,12,0,0,0,24,0V400A12,12,0,0,0,224,388Z"/><path d="M160,124H384a12,12,0,0,0,11.384-15.8,95.287,95.287,0,0,0-16.165-27.888C363.78,61.792,343.3,52,320,52c-9.2,0-21.936,1.391-38.8,4.233L232.485,7.515A12,12,0,0,0,224,4H192a12,12,0,0,0-10.733,17.366l25.278,50.556C192.981,75.158,180.866,78.2,172,80.471V64a12,12,0,0,0-24,0v48A12,12,0,0,0,160,124ZM320,76c22.371,0,36.32,12.885,44.19,24H324.971l-22.65-22.649A149.717,149.717,0,0,1,320,76ZM219.029,28l49.463,49.462.037.038,22.5,22.5H247.417l-36-72ZM217.57,93.973,220.584,100H192.693C200.148,98.146,208.605,96.084,217.57,93.973Z"/><path d="M92.918,377.385a12,12,0,0,0,4.474-16.371A180.111,180.111,0,0,1,109.7,164.07l1.943,19.951a12,12,0,0,0,11.929,10.837c.389,0,.782-.018,1.177-.057a12,12,0,0,0,10.78-13.107l-4.715-48.432A12,12,0,0,0,117.7,122.481L69.27,127.2A12,12,0,1,0,71.6,151.084l19.247-1.874a204.1,204.1,0,0,0-14.3,223.7,11.995,11.995,0,0,0,16.37,4.473Z"/><path d="M448.635,127.037a12,12,0,0,0-22,9.6,180.115,180.115,0,0,1-33.291,194.5l.2-20.044a12,12,0,0,0-11.878-12.12h-.124a12,12,0,0,0-12,11.879l-.489,48.66a12,12,0,0,0,11.877,12.12l48.66.489h.124a12,12,0,0,0,.118-24l-19.338-.195a204.105,204.105,0,0,0,38.132-220.891Z"/></g></g></svg>
